<svg id="Layer_1" data-name="Layer 1" xmlns="http://www.w3.org/2000/svg" viewBox="0 0 1080 1080"><defs><style>.cls-1{fill:#fff;}</style></defs><title>Artboard 6</title><path class="cls-1" d="M521,265a9.34,9.34,0,0,1,6.65,15.89l-15.75,16L439.3,370.51,313.92,497.64a39.3,39.3,0,0,0-11.39,27.77V685.17a39.67,39.67,0,0,0,39.55,39.54H460a34.36,34.36,0,0,0,24.5-10.27l99.89-101.27H440.07a67,67,0,0,1-47.71-114l120.26-122L609,279.39a48.13,48.13,0,0,1,68.59,0l152.76,154.9a128.85,128.85,0,0,1,37.34,91.12v159.8A129.76,129.76,0,0,1,738,815H612.21a8.62,8.62,0,0,1-6.15-14.7L672.42,733a27.59,27.59,0,0,1,19.69-8.25H738a39.51,39.51,0,0,0,39.5-39.5V525.41a39.43,39.43,0,0,0-11.35-27.77L643.32,373.13,495.64,522.92H639.93a67,67,0,0,1,50.16,111.44l-.13.18L687.64,637l-86.48,87.72-51.27,52A128.21,128.21,0,0,1,458.51,815H342A129.76,129.76,0,0,1,212.28,685.21V525.41a128.9,128.9,0,0,1,37.39-91.12L409.25,272.45A24.87,24.87,0,0,1,427,265Z"/></svg>